<svg xmlns="http://www.w3.org/2000/svg" viewBox="-20.237 0 525.335 525.335">
    <path class="jp-icon4 jp-icon-selectable" d="M0 40.473h484.862v484.862H0z"/>
    <path class="jp-icon-selectable-inverse" fill="#FFF" d="M9.477 50.808h464.192v329.847H9.477z"/>
    <path class="jp-icon-contrast3 jp-icon-selectable" fill="#0C479C" d="M383.476 267.343c-2.544-1.346-5.14-2.493-7.743-3.516l1.863-.15s-16.608-7.354-18.057-60.722c-1.438-53.372 15.828-62.478 15.828-62.478l-2.48.109c13.045-6.69 24.265-17.267 31.669-31.216 19.295-36.291 5.488-81.362-30.81-100.657-36.31-19.276-81.372-5.506-100.656 30.817-7.927 14.899-10.178 31.273-7.677 46.733l-.851-1.306s4.373 19.365-41.032 47.55c-45.397 28.2-65.877 14.159-65.877 14.159l1.302 1.925c-1.298-.803-2.544-1.624-3.901-2.333-36.306-19.294-81.38-5.509-100.667 30.804-19.281 36.309-5.489 81.365 30.813 100.668 27.064 14.364 58.974 10.36 81.461-7.655l-.487.946s16.531-13.599 64.16 11.973c37.601 20.178 43.184 39.956 43.899 47.383-.983 27.57 13.388 54.618 39.389 68.433 36.301 19.299 81.374 5.498 100.657-30.804 19.292-36.302 5.507-81.382-30.803-100.663zm-83.934 9.785c-6.018 2.129-23.203 4.487-59.389-14.921-39.187-21.04-45.005-38.615-45.855-43.891.557-6.401.202-12.791-.891-19.02l.239.359s-3.189-17.096 41.65-44.943c40.133-24.908 58.376-19.955 61.771-18.653a73.858 73.858 0 0 0 6.825 4.131 74.587 74.587 0 0 0 13.888 5.672c5.52 5.257 15.678 20.178 16.733 59.413 1.078 39.535-10.533 54.779-16.865 60.168-6.526 2.956-12.626 6.897-18.106 11.685z" />
    <path class="jp-icon-selectable-inverse" fill="#FFF" d="M294.631 32.4c-21.659 23.694-22.118 58.544-1.246 78.264-10.316-9.935-10.093-30.608.33-50.387 1.342-1.774 5.224-5.961 10.898-4.055.569.194.951.245 1.17.213 1.284.278 2.601.439 3.96.381 8.622-.393 15.288-7.684 14.898-16.307-.175-3.868-1.78-7.292-4.26-9.92 20.007-13.107 42.968-14.61 52.375-6.016l.359.025C351.625 4.97 316.493 8.476 294.631 32.4z"/>
    <g class="jp-icon-selectable-inverse" fill="#FFF">
        <path d="M76.205 251.381c-.184-.19-.371-.406-.562-.598.121.125.235.279.378.407l.184.191z"/>
        <path d="M76.894 172.52c-21.663 23.694-22.114 58.541-1.251 78.264-10.313-9.935-10.092-30.608.331-50.387 1.345-1.778 5.231-5.961 10.906-4.055.565.195.946.242 1.167.212 1.283.275 2.603.44 3.959.377 8.623-.392 15.288-7.684 14.899-16.303-.179-3.867-1.782-7.296-4.252-9.92 19.995-13.107 42.959-14.617 52.366-6.021l.355.03c-21.483-19.631-56.623-16.126-78.48 7.803z"/>
    </g>
    <g class="jp-icon-selectable-inverse" fill="#FFF">
        <path d="M306.701 370.015c-.187-.191-.374-.404-.564-.594.117.125.237.279.378.402l.186.192zM307.39 291.145c-21.666 23.704-22.118 58.553-1.254 78.276-10.317-9.935-10.09-30.611.331-50.388 1.344-1.781 5.227-5.96 10.906-4.053.568.189.941.242 1.166.212 1.282.277 2.605.44 3.963.381 8.617-.396 15.28-7.692 14.891-16.32-.176-3.864-1.781-7.288-4.252-9.917 20.002-13.103 42.959-14.61 52.37-6.016l.355.029c-21.483-19.631-56.625-16.123-78.476 7.796z"/>
    </g>
    <text fill="#FFF" y="498" x="250" font-family="sans-serif" font-size="112" font-weight="bold" text-anchor="middle">RDF</text>
</svg>
